<?xml version="1.0" encoding="UTF-8"?>
<svg width="24" height="24" viewBox="0 0 24 24" fill="none" xmlns="http://www.w3.org/2000/svg">
    <path d="M12 6.25278V19.2528M12 6.25278C12 6.25278 15.5 3.5 19 6.25278V19.2528C19 19.2528 15.5 16.5 12 19.2528M12 6.25278C12 6.25278 8.5 3.5 5 6.25278V19.2528C5 19.2528 8.5 16.5 12 19.2528" stroke="#6C63FF" stroke-width="2" stroke-linecap="round" stroke-linejoin="round"/>
    <path d="M12 6.25278C13.3807 6.25278 14.5 5.13349 14.5 3.75278C14.5 2.37206 13.3807 1.25278 12 1.25278C10.6193 1.25278 9.5 2.37206 9.5 3.75278C9.5 5.13349 10.6193 6.25278 12 6.25278Z" fill="#6C63FF"/>
</svg>
